<?xml version="1.0" standalone="no"?>
<!DOCTYPE svg PUBLIC "-//W3C//DTD SVG 20010904//EN"
 "http://www.w3.org/TR/2001/REC-SVG-20010904/DTD/svg10.dtd">
<svg version="1.0" xmlns="http://www.w3.org/2000/svg"
 width="1200.000000pt" height="1200.000000pt" viewBox="0 0 1200.000000 1200.000000"
 preserveAspectRatio="xMidYMid meet">

<g transform="translate(0.000000,1200.000000) scale(0.100000,-0.100000)"
fill="#000000" stroke="none">
<path d="M4695 8373 c-355 -149 -809 -278 -1200 -343 -71 -12 -140 -23 -152
-26 -23 -4 -23 -7 -23 -143 l0 -139 63 -7 c273 -29 499 -76 574 -121 48 -28
100 -94 120 -151 7 -19 21 -85 30 -146 17 -104 18 -231 18 -1747 0 -1687 -3
-1861 -45 -2345 -6 -60 -10 -117 -10 -126 0 -14 220 -199 237 -199 5 0 58 19
118 43 61 24 268 97 461 161 194 65 356 121 362 125 6 4 -1 68 -18 176 -51
305 -69 447 -80 610 -6 94 -10 596 -10 1229 l0 1069 62 86 c257 356 528 667
733 839 172 144 415 286 585 342 337 109 634 30 750 -201 63 -123 118 -407
140 -714 13 -174 12 -4546 -1 -5045 -4 -168 -11 -426 -14 -575 l-7 -270 110
-88 c61 -48 116 -87 124 -87 7 0 54 16 103 37 123 50 390 143 697 243 l257 84
-20 27 c-96 136 -163 411 -189 784 -29 424 -33 707 -40 3050 -6 1754 -11 2451
-19 2505 -60 385 -168 646 -345 828 -205 212 -469 300 -866 290 -143 -4 -197
-10 -295 -32 -550 -126 -1123 -546 -1693 -1243 l-100 -122 -6 112 c-9 171 -36
752 -43 930 l-6 158 -104 97 c-58 53 -110 98 -116 98 -7 1 -70 -23 -142 -53z"/>
</g>
</svg>
